<?xml version="1.0" standalone="no"?>
<!DOCTYPE svg PUBLIC "-//W3C//DTD SVG 20010904//EN"
 "http://www.w3.org/TR/2001/REC-SVG-20010904/DTD/svg10.dtd">
<svg version="1.0" xmlns="http://www.w3.org/2000/svg"
 width="500.000000pt" height="500.000000pt" viewBox="0 0 500.000000 500.000000"
 preserveAspectRatio="xMidYMid meet">
<metadata>
Created by potrace 1.14, written by Peter Selinger 2001-2017
</metadata>
<g transform="translate(0.000000,500.000000) scale(0.100000,-0.100000)"
fill="#000000" stroke="none">
<path d="M1738 3938 c-214 -15 -513 -124 -693 -253 -80 -57 -239 -224 -296
-311 -151 -228 -203 -420 -204 -749 0 -197 17 -311 72 -475 86 -257 267 -494
533 -695 483 -366 1042 -514 1619 -429 675 100 1330 523 1578 1019 81 162 108
306 100 528 -7 180 -28 278 -92 414 -156 333 -466 548 -821 570 -125 7 -237
-8 -369 -50 -83 -26 -116 -32 -196 -32 -88 0 -100 2 -160 33 -35 18 -104 67
-154 108 -194 162 -380 260 -580 305 -77 17 -230 25 -337 17z m222 -178 c225
-24 397 -104 635 -299 55 -45 132 -97 170 -116 127 -63 270 -69 424 -18 167
55 307 67 453 39 139 -27 242 -84 363 -203 98 -96 107 -108 154 -198 72 -135
92 -211 98 -362 7 -176 -17 -277 -109 -458 -220 -430 -766 -771 -1394 -871
-145 -23 -421 -23 -559 0 -116 19 -254 55 -375 97 -263 92 -575 296 -753 491
-243 267 -328 504 -314 883 7 183 19 239 82 371 70 149 166 277 283 377 154
131 435 246 652 266 47 5 86 9 86 10 1 0 48 -4 104 -9z"/>
<path d="M1564 3005 c-150 -32 -232 -119 -241 -255 -7 -91 21 -162 88 -225 60
-56 125 -86 261 -120 176 -45 218 -71 218 -136 0 -28 -8 -47 -30 -73 -37 -42
-85 -59 -161 -59 -79 0 -114 23 -159 105 -46 86 -65 106 -111 120 -78 23 -137
-33 -125 -120 8 -59 60 -154 109 -198 140 -127 448 -137 603 -19 112 86 157
262 96 380 -50 98 -137 147 -367 210 -151 42 -195 69 -195 118 0 93 185 142
270 71 16 -14 45 -51 65 -83 38 -64 75 -87 123 -76 64 14 98 93 72 170 -17 51
-83 121 -142 151 -105 53 -244 68 -374 39z"/>
<path d="M2291 2984 c-82 -69 11 -218 115 -184 45 15 74 54 74 99 0 46 -23 79
-66 97 -50 21 -89 17 -123 -12z"/>
<path d="M2299 2727 c-37 -28 -39 -50 -39 -367 0 -331 3 -353 50 -395 33 -29
101 -27 134 4 45 42 49 81 42 394 -7 315 -10 333 -66 362 -35 18 -99 19 -121
2z"/>
<path d="M2662 2724 c-13 -11 -27 -37 -32 -59 -13 -56 -12 -543 1 -605 20 -96
88 -140 161 -106 60 29 62 39 68 281 5 189 8 225 24 255 26 48 44 59 97 60 77
0 77 0 81 -270 2 -174 7 -241 17 -260 38 -71 93 -94 153 -66 60 29 62 39 68
281 6 235 12 264 62 299 28 20 88 21 114 2 18 -13 19 -32 24 -258 5 -222 7
-246 25 -278 15 -24 34 -39 63 -50 40 -14 46 -13 80 5 70 38 74 57 69 340 -3
157 -9 264 -16 289 -18 55 -91 122 -154 141 -106 31 -210 13 -285 -50 l-33
-28 -33 32 c-78 76 -247 81 -346 11 l-29 -21 -29 32 c-36 41 -113 52 -150 23z"/>
</g>
</svg>
